<mxfile host="app.diagrams.net" modified="2024-06-29T16:38:48.335Z" agent="Mozilla/5.0 (Windows NT 10.0; Win64; x64) AppleWebKit/537.36 (KHTML, like Gecko) Chrome/126.0.0.0 Safari/537.36 Edg/126.0.0.0" version="24.5.5" etag="bH9hQ5x4k4S60u8MTqGM" type="github">
  <diagram name="Page-1" id="da9YfOJEMWCjCRgaq_AK">
    <mxGraphModel>
      <root>
        <mxCell id="0" />
        <mxCell id="1" parent="0" />
      </root>
    </mxGraphModel>
  </diagram>
</mxfile>
